<?xml version="1.0" encoding="utf-8"?>
<svg width="19px" height="19px" viewBox="0 0 19 19" version="1.1" xmlns:xlink="http://www.w3.org/1999/xlink" xmlns="http://www.w3.org/2000/svg">
  <path d="M-261.903 -953.164C-261.775 -953.037 -261.702 -952.863 -261.702 -952.683C-261.702 -952.502 -261.775 -952.328 -261.903 -952.201C-262.03 -952.073 -262.204 -952 -262.385 -952C-262.565 -952 -262.739 -952.073 -262.866 -952.201L-271.202 -960.544L-279.538 -952.201C-279.665 -952.073 -279.839 -952 -280.02 -952C-280.2 -952 -280.374 -952.073 -280.501 -952.201C-280.629 -952.328 -280.702 -952.502 -280.702 -952.683C-280.702 -952.863 -280.629 -953.037 -280.501 -953.164L-272.158 -961.501L-280.501 -969.837C-280.767 -970.103 -280.767 -970.534 -280.501 -970.8C-280.235 -971.067 -279.804 -971.067 -279.538 -970.8L-271.202 -962.457L-262.866 -970.8C-262.6 -971.067 -262.169 -971.067 -261.903 -970.8C-261.637 -970.534 -261.637 -970.103 -261.903 -969.837L-270.246 -961.501L-261.903 -953.164Z" id="Path" fill="#000000" stroke="none" />
</svg>